<svg xmlns="http://www.w3.org/2000/svg" viewBox="0 0 64 64" role="img" aria-label="Sandman hourglass icon">
  <defs>
    <linearGradient id="glass" x1="0" y1="0" x2="1" y2="0">
      <stop offset="0" stop-color="#2c2f3a" stop-opacity="0.8" />
      <stop offset="0.5" stop-color="#4a5568" stop-opacity="0.5" />
      <stop offset="1" stop-color="#2c2f3a" stop-opacity="0.8" />
    </linearGradient>
    <linearGradient id="sand" x1="0" y1="0" x2="0" y2="1">
      <stop offset="0" stop-color="#e6c27a" />
      <stop offset="1" stop-color="#b8894c" />
    </linearGradient>
  </defs>
  <rect width="64" height="64" rx="14" fill="#0f172a" />
  <ellipse cx="32" cy="12" rx="18" ry="4" fill="url(#glass)" />
  <ellipse cx="32" cy="52" rx="18" ry="4" fill="url(#glass)" />
  <path d="M14 12 L50 12 L36 32 L28 32 Z" fill="url(#sand)" opacity="0.85" />
  <path d="M28 32 L36 32 L50 52 L14 52 Z" fill="url(#sand)" opacity="0.9" />
  <path
    d="M14 12 C14 12 14 16 14 18 L28 32 C30 34 30 38 28 40 L14 52 C14 54 14 56 14 56 L50 56 C50 56 50 54 50 52 L36 40 C34 38 34 34 36 32 L50 18 C50 16 50 12 50 12 Z"
    fill="none"
    stroke="url(#glass)"
    stroke-width="2"
    opacity="0.9"
  />
  <circle cx="32" cy="34" r="2" fill="#d9a868" />
</svg>
