<svg xmlns="http://www.w3.org/2000/svg" viewBox="0 0 512 512" role="img" aria-label="Sandman hourglass app icon">
  <defs>
    <linearGradient id="glass" x1="0" y1="0" x2="1" y2="0">
      <stop offset="0" stop-color="#2c2f3a" stop-opacity="0.85" />
      <stop offset="0.5" stop-color="#4a5568" stop-opacity="0.5" />
      <stop offset="1" stop-color="#2c2f3a" stop-opacity="0.85" />
    </linearGradient>
    <linearGradient id="sand" x1="0" y1="0" x2="0" y2="1">
      <stop offset="0" stop-color="#f0d28c" />
      <stop offset="1" stop-color="#b8894c" />
    </linearGradient>
  </defs>
  <rect width="512" height="512" rx="112" fill="#0f172a" />
  <g transform="translate(96 64)">
    <ellipse cx="160" cy="32" rx="96" ry="18" fill="url(#glass)" />
    <ellipse cx="160" cy="352" rx="96" ry="18" fill="url(#glass)" />
    <path
      d="M 64 32 C 64 32, 64 48, 64 56 L 144 176 C 152 184, 152 200, 144 208 L 64 328 C 64 336, 64 352, 64 352 L 256 352 C 256 352, 256 336, 256 328 L 176 208 C 168 200, 168 184, 176 176 L 256 56 C 256 48, 256 32, 256 32 Z"
      fill="none"
      stroke="url(#glass)"
      stroke-width="8"
      opacity="0.9"
    />
    <path d="M 64 32 L 256 32 L 176 176 L 144 176 Z" fill="url(#sand)" />
    <path d="M 144 208 L 176 208 L 256 352 L 64 352 Z" fill="url(#sand)" opacity="0.95" />
    <rect x="158" y="176" width="4" height="24" fill="#e0c07b" />
    <circle cx="160" cy="192" r="10" fill="#111827" opacity="0.6" />
  </g>
</svg>
